<svg width="1310" height="513" viewBox="0 0 1310 513" fill="none" xmlns="http://www.w3.org/2000/svg">
<g clip-path="url(#clip0_7_352)">
<rect width="1310" height="513" fill="#361566"/>
<g opacity="0.1" clip-path="url(#clip1_7_352)">
<path d="M267.83 540.86C267.83 526.45 267.742 515.732 269.655 503.555C271.185 493.656 275.392 483.756 278.834 474.24C281.512 467.009 284.189 459.778 287.632 452.539C289.927 447.593 292.604 443.023 296.046 438.453C305.609 425.509 314.788 411.806 325.115 399.63C333.53 389.73 344.239 381.732 353.801 373.358C364.128 364.601 374.455 355.844 385.164 347.087C394.727 339.472 404.286 332.242 413.85 324.627C423.798 316.637 433.737 309.398 443.301 300.649C455.925 289.223 468.166 277.806 480.023 265.621C489.195 256.864 495.316 245.83 497.617 233.261C499.143 225.272 501.053 216.898 499.91 209.284C497.992 195.197 493.406 181.486 484.609 169.31C478.489 160.936 472.369 153.322 463.572 147.609C457.068 143.422 450.189 138.852 442.917 136.95C432.595 134.281 421.496 133.139 411.173 133.522C401.993 133.906 392.431 137.334 383.252 139.611C378.28 140.753 372.925 141.896 368.335 144.181C364.51 145.707 361.068 148.751 357.243 151.037C352.271 153.697 346.916 155.982 342.327 159.026C331.617 166.266 320.142 173.496 310.581 181.87C297.576 192.912 286.102 205.856 273.48 217.273C261.24 228.316 249.001 240.117 235.614 249.249C219.55 260.292 201.956 269.808 184.362 278.948C176.712 283.135 167.915 284.278 159.883 287.322C148.791 291.509 137.699 293.035 126.224 295.32C102.128 300.649 77.6491 298.74 53.5529 298.364C52.4055 298.364 51.2581 298.364 50.4935 298.364C40.9311 297.222 31.7514 295.695 22.1898 294.177C16.4521 293.035 10.3326 292.267 4.97766 290.366C-4.96667 286.938 -14.911 282.751 -24.4735 278.565C-33.6532 274.378 -42.8321 270.191 -50.8645 264.862C-67.6938 253.445 -83.3758 240.117 -96.3795 224.504C-104.412 214.988 -112.061 204.713 -118.181 194.055C-123.536 184.914 -127.361 174.639 -130.803 164.356C-135.01 150.278 -138.071 135.808 -141.895 121.721C-147.632 99.645 -144.955 76.8015 -144.955 54.7169C-144.955 37.5863 -140.365 20.8395 -135.01 4.46869C-132.333 -4.28674 -130.421 -13.043 -126.213 -21.0369C-120.094 -33.2193 -112.826 -44.6402 -105.559 -56.4414C-100.587 -64.4362 -95.2321 -72.4302 -89.1126 -79.6636C-80.6984 -89.1804 -71.9014 -98.317 -61.9562 -105.932C-47.0397 -117.733 -30.9758 -128.392 -14.9111 -138.67C-9.17429 -142.478 -1.90649 -144.381 4.21304 -147.046C12.6273 -150.472 21.0424 -154.659 29.4566 -157.705C35.1934 -159.608 40.9311 -160.751 47.0506 -161.893C58.1423 -164.177 69.2349 -166.842 80.3265 -168.365C88.3589 -169.506 96.7732 -169.506 105.188 -169.506C114.367 -169.506 123.547 -170.268 132.727 -169.126C144.201 -167.603 155.676 -164.938 167.15 -163.034C174.035 -161.893 180.537 -160.37 187.421 -158.847C194.688 -156.944 201.956 -154.659 209.606 -152.375C210.753 -152.375 211.518 -151.614 212.665 -151.614C221.08 -150.853 229.112 -147.426 236.761 -144.761C242.116 -142.858 247.471 -142.097 252.826 -140.574C269.273 -136.386 286.102 -132.58 302.549 -128.392C312.11 -126.108 322.055 -123.823 331.617 -121.539C337.736 -120.016 344.239 -118.874 350.358 -117.733C357.626 -116.21 364.893 -115.448 372.16 -113.925C401.993 -106.692 431.828 -106.312 462.046 -107.454C473.136 -107.835 483.842 -108.976 494.557 -110.88C504.88 -112.784 515.211 -114.687 525.151 -118.494C543.128 -124.965 560.722 -131.818 577.174 -142.478C590.94 -151.614 602.414 -162.654 611.595 -175.597C619.624 -187.018 626.512 -199.962 624.594 -215.189C624.219 -218.996 624.594 -222.803 624.594 -226.99C624.594 -238.411 618.857 -247.548 613.888 -257.446C609.302 -266.963 602.414 -274.577 594.001 -280.287C587.113 -284.856 578.7 -286.378 571.429 -290.566C563.015 -295.515 553.835 -292.089 546.188 -294.754C533.948 -298.56 521.707 -298.18 510.233 -296.657C488.437 -293.231 466.248 -295.895 444.452 -292.85C436.414 -291.708 429.151 -293.992 421.121 -293.612C412.699 -293.612 404.286 -293.612 396.256 -294.372C389.372 -295.515 383.252 -299.321 376.367 -300.464C365.657 -302.367 356.479 -306.936 347.299 -312.265C337.355 -317.595 327.792 -324.066 320.908 -333.203C313.258 -343.101 306.373 -354.141 299.488 -364.8C297.194 -368.226 296.429 -372.414 295.282 -376.221C293.752 -382.312 293.369 -389.165 291.074 -395.256C284.189 -411.245 288.014 -427.995 288.014 -444.365C288.014 -452.359 291.839 -460.353 294.134 -468.348C295.664 -472.916 296.429 -477.865 298.724 -482.053C303.696 -491.189 309.051 -499.946 314.788 -508.701C322.82 -521.264 335.059 -530.02 346.916 -539.156C351.888 -542.964 358.008 -545.628 363.745 -548.293C371.395 -552.1 379.045 -555.526 387.077 -558.952C388.989 -559.714 391.667 -558.952 393.961 -559.714C402.76 -561.998 411.941 -564.282 420.738 -566.566C423.414 -567.328 426.474 -566.566 429.535 -567.328C445.978 -568.469 461.279 -574.18 475.045 -582.175C488.82 -590.169 496.083 -603.494 502.587 -617.959C505.647 -624.812 504.88 -631.284 506.414 -637.755C508.324 -645.75 506.414 -654.125 505.264 -661.358C503.354 -670.114 498.76 -678.489 494.174 -686.484C488.82 -696.001 481.933 -704.376 472.752 -710.467C463.572 -716.558 455.158 -723.411 445.211 -727.979C433.737 -733.689 421.496 -737.876 410.023 -742.445C409.639 -742.445 409.264 -742.445 408.88 -742.445C399.316 -743.968 389.372 -746.252 379.809 -746.633C364.51 -747.394 349.211 -747.774 333.912 -746.633C322.055 -745.491 310.963 -742.065 299.488 -736.735C285.719 -729.882 274.245 -720.746 265.065 -709.325C259.328 -702.473 255.503 -694.098 250.913 -686.103C247.854 -680.012 245.176 -673.921 242.882 -667.449C240.586 -660.978 237.909 -654.125 236.761 -647.272C233.702 -631.284 231.407 -614.914 229.494 -598.544C227.964 -586.362 226.817 -574.18 225.669 -561.998C224.522 -548.674 223.758 -534.969 221.845 -521.645C220.315 -509.844 217.255 -498.042 214.961 -486.621C213.43 -478.246 213.048 -469.11 210.37 -461.115C204.251 -445.126 199.279 -428.756 190.482 -413.529C180.919 -397.92 169.445 -384.596 155.676 -372.795C147.643 -365.943 137.699 -361.755 128.137 -356.425C113.603 -348.811 97.5387 -345.385 81.8567 -343.101C68.4694 -341.198 54.3175 -343.101 40.1664 -344.624C33.6642 -345.004 27.5447 -346.908 21.4243 -348.811C14.1574 -351.096 6.89047 -353.76 0.00546265 -357.187C-6.11407 -360.232 -12.2336 -363.659 -17.9712 -367.465C-24.0908 -371.272 -29.8284 -374.698 -35.5652 -378.886C-45.1277 -386.119 -55.072 -392.971 -64.2517 -400.966C-77.6382 -412.387 -90.6427 -424.95 -104.029 -436.751C-117.034 -448.172 -130.038 -459.973 -143.425 -471.013C-151.457 -477.485 -159.872 -484.718 -169.434 -488.525C-189.705 -496.138 -211.124 -501.087 -232.925 -493.855C-237.516 -492.332 -242.488 -491.57 -247.46 -490.047C-265.054 -483.957 -279.206 -474.439 -288.768 -457.689C-294.122 -448.172 -297.183 -438.274 -300.243 -427.995C-303.685 -416.575 -303.685 -405.915 -302.919 -394.875C-302.538 -386.881 -298.713 -379.267 -296.035 -371.652C-294.888 -367.846 -293.741 -364.039 -292.21 -360.232C-287.238 -350.334 -282.648 -340.055 -276.911 -330.538C-271.174 -321.021 -264.671 -311.884 -258.934 -302.367C-251.668 -290.566 -243.635 -279.145 -236.75 -267.344C-229.866 -255.543 -223.747 -243.741 -217.244 -231.939C-212.272 -222.803 -209.595 -212.905 -206.152 -203.007C-198.502 -179.404 -195.443 -155.802 -196.59 -131.437C-197.355 -118.494 -200.032 -105.55 -202.327 -92.6066C-203.474 -85.7543 -205.004 -78.5209 -206.917 -72.0499C-208.446 -66.3394 -211.124 -60.629 -213.419 -54.9186C-214.949 -50.3507 -216.097 -45.4017 -218.392 -41.2141C-222.598 -32.4578 -227.189 -23.7016 -231.778 -15.3265C-236.75 -6.95135 -241.722 1.42377 -247.077 9.41772C-250.52 14.7479 -255.11 19.3132 -258.934 24.6425C-271.174 40.6304 -286.091 53.5742 -302.538 65.0002C-314.012 72.9899 -326.251 80.6046 -338.873 87.4601C-348.053 92.7894 -358.38 96.5923 -368.324 100.404C-373.679 102.689 -379.416 103.832 -385.153 105.35C-392.42 107.635 -399.688 110.304 -406.572 112.589C-407.337 112.589 -407.72 112.589 -408.485 112.589C-420.724 114.107 -432.964 116.008 -445.203 117.534C-448.263 117.918 -451.323 118.293 -454 119.061C-454 93.5483 -454 68.4281 -454 42.9156C-445.585 41.3979 -437.553 40.6304 -429.139 38.7289C-421.872 36.8275 -414.987 34.167 -408.102 31.8818C-404.277 30.7392 -400.07 29.5966 -395.863 28.0703C-387.831 24.6425 -379.416 21.5984 -371.767 17.4117C-363.735 13.225 -355.702 8.27594 -348.053 2.94666C-335.431 -5.80963 -323.956 -16.4691 -314.777 -29.0317C-308.657 -37.4069 -301.007 -45.4017 -296.8 -54.9186C-290.68 -68.2427 -284.178 -81.1865 -280.353 -95.272C-274.616 -116.59 -272.704 -138.289 -274.616 -159.989C-275.764 -174.455 -280.353 -188.161 -287.62 -200.723C-293.358 -210.621 -297.565 -221.661 -303.685 -231.178C-311.335 -243.741 -320.132 -255.543 -328.164 -267.724C-333.518 -276.099 -339.256 -284.475 -344.228 -292.85C-351.495 -305.793 -358.762 -319.117 -365.647 -332.442C-367.941 -336.629 -368.707 -341.959 -370.237 -346.527C-372.531 -352.999 -374.826 -359.471 -377.121 -366.323C-377.121 -367.085 -377.121 -367.465 -377.121 -368.226C-378.269 -383.073 -380.564 -397.92 -380.564 -413.148C-380.564 -422.665 -379.034 -432.563 -376.739 -442.08C-373.679 -454.643 -370.619 -467.587 -365.265 -479.008C-359.144 -492.712 -353.025 -507.179 -340.786 -517.457C-333.136 -524.309 -326.634 -532.684 -318.984 -539.156C-311.717 -544.867 -303.685 -549.054 -295.653 -553.623C-289.533 -557.049 -283.031 -560.475 -276.911 -563.521C-272.704 -565.424 -268.114 -566.947 -263.524 -567.709C-254.345 -569.612 -245.165 -571.515 -235.603 -572.658C-226.423 -573.799 -216.479 -575.322 -207.299 -574.561C-191.618 -573.038 -175.936 -570.754 -160.637 -567.328C-152.604 -565.424 -145.337 -560.094 -137.305 -557.811C-123.536 -554.003 -113.209 -544.867 -101.352 -537.634C-91.4073 -531.543 -82.9931 -522.786 -74.1961 -515.173C-61.9561 -504.513 -50.0998 -493.474 -38.2426 -482.814C-30.593 -475.962 -23.708 -468.729 -15.6765 -461.876C0.00549316 -448.552 16.4521 -435.99 35.5762 -427.233C47.4333 -421.904 58.9078 -419.239 71.1469 -421.143C91.0364 -423.807 108.63 -431.421 120.488 -448.172C126.224 -456.547 128.902 -467.206 132.727 -476.723C135.021 -483.195 136.934 -489.667 139.229 -496.138C139.229 -496.9 139.612 -497.661 139.993 -498.423C141.141 -504.513 142.671 -510.605 143.436 -517.077C145.348 -536.872 146.496 -556.288 148.409 -576.084C149.556 -588.646 150.703 -601.589 152.233 -614.153C152.998 -622.147 154.145 -630.142 156.058 -638.136C158.736 -651.46 161.795 -664.404 165.238 -677.347C167.914 -686.864 170.592 -696.382 174.035 -705.519C177.094 -713.894 180.919 -721.888 185.509 -729.501C190.863 -739.019 196.601 -748.536 203.486 -756.911C218.403 -775.565 235.232 -792.696 257.415 -803.356C266.212 -807.543 275.392 -810.969 284.189 -814.776C315.935 -828.862 349.594 -827.339 382.87 -825.816C393.579 -825.436 404.669 -823.532 415.384 -821.629C421.88 -820.487 428.767 -819.725 435.271 -817.822C443.301 -815.157 450.947 -810.969 458.602 -807.924C467.399 -804.117 476.58 -801.071 484.993 -796.884C493.023 -793.077 500.294 -787.747 507.94 -783.179C520.181 -775.946 530.887 -766.048 540.452 -755.769C554.602 -740.542 567.226 -723.792 573.73 -703.615C576.79 -693.717 580.609 -684.2 583.669 -674.302C584.053 -673.16 583.669 -671.637 583.669 -670.494C583.669 -652.602 584.82 -634.329 583.286 -616.818C582.527 -607.3 580.234 -597.402 574.489 -588.646C571.053 -583.316 569.136 -576.464 566.075 -570.754C563.782 -566.566 561.106 -562.379 558.813 -558.191C551.158 -545.628 540.835 -534.969 528.978 -525.832C522.858 -520.883 515.97 -516.696 509.091 -512.508C497.234 -504.895 483.842 -501.087 470.459 -497.281C456.684 -493.093 442.918 -490.809 428.384 -489.667C421.88 -488.906 415.759 -485.098 409.264 -483.576C396.256 -480.911 386.694 -472.916 378.28 -464.161C374.073 -459.973 371.778 -453.501 368.718 -448.172C362.981 -436.751 364.893 -424.95 366.04 -413.909C367.953 -399.443 374.837 -387.261 389.372 -380.409C398.933 -375.841 408.113 -374.698 418.061 -372.795C428 -370.892 437.564 -369.749 447.129 -370.892C471.227 -374.698 495.316 -373.175 519.414 -374.318C536.241 -375.079 553.076 -374.318 569.903 -373.175C578.316 -372.414 586.346 -368.988 594.384 -366.704C598.97 -365.562 603.181 -363.659 607.767 -362.516C620.008 -359.471 630.714 -353.379 640.279 -345.385C651.752 -335.487 662.467 -325.209 672.406 -314.168C677.76 -308.078 680.82 -299.321 684.647 -291.708C687.707 -285.997 690.768 -279.907 693.061 -273.816C695.737 -266.963 697.271 -259.349 699.181 -252.117C703.392 -238.411 703.776 -223.945 702.625 -210.24C701.858 -199.581 698.414 -189.302 696.121 -179.024C694.979 -174.455 693.828 -169.887 692.293 -165.319C685.414 -148.187 676.234 -132.58 664.377 -117.733C653.67 -104.409 641.046 -94.1295 628.421 -83.47C620.008 -76.6177 609.302 -72.0499 599.738 -66.7197C591.708 -62.5322 583.286 -58.3447 574.489 -54.9186C569.136 -52.6342 563.015 -51.1122 557.662 -48.8278C551.925 -46.9238 546.188 -44.6402 540.068 -42.7361C539.301 -42.7361 538.926 -42.3559 538.159 -41.9756C529.362 -40.4527 519.797 -40.4527 511.384 -37.7872C497.992 -33.5996 484.226 -36.2651 471.227 -33.2193C452.098 -28.6506 432.978 -31.6964 413.85 -31.3161C402.376 -31.3161 390.519 -33.2193 379.045 -34.7422C370.63 -35.8839 361.833 -35.884 354.183 -38.9297C346.152 -41.9747 338.502 -41.2141 330.47 -42.7361C314.406 -45.7819 298.724 -49.5892 283.042 -53.7768C272.715 -56.4415 262.388 -60.2487 252.06 -63.2936C245.559 -65.1977 239.057 -66.3395 232.555 -68.2427C226.052 -70.1459 219.55 -72.8113 212.665 -75.0948C208.458 -76.6177 204.251 -77.7604 200.043 -78.9021C188.951 -81.5668 177.86 -84.2314 166.767 -87.2772C162.178 -88.4189 157.588 -89.9419 152.615 -90.7034C139.612 -92.6066 126.224 -95.272 113.22 -95.272C98.3033 -95.272 83.7686 -92.9877 69.2349 -90.7034C59.6724 -89.1805 50.1108 -86.1355 40.5483 -82.7094C32.5168 -79.6636 24.1017 -75.8563 17.2176 -70.9073C4.59494 -62.1519 -7.64417 -52.6342 -19.5013 -42.7361C-26.0036 -37.4069 -31.3577 -30.935 -36.3298 -24.0828C-42.4502 -15.7076 -47.8043 -6.95135 -52.7773 1.80408C-58.1313 11.3218 -61.1915 21.5984 -63.869 32.6407C-68.4584 51.2975 -71.9014 69.9459 -69.2239 88.9864C-66.5464 108.777 -63.1035 128.952 -53.9247 147.225C-45.1277 164.356 -32.8878 178.826 -18.354 190.627C-9.55612 197.858 0.00549316 205.097 11.8627 207.757C16.0694 208.516 20.2769 211.56 24.1017 213.47C24.4845 213.47 25.2491 214.229 26.0146 214.229C34.8116 215.756 43.6086 217.657 52.7883 218.416C63.1154 219.559 73.8243 221.085 84.1514 221.085C94.8612 221.085 105.57 219.942 115.897 217.657C125.842 215.372 135.021 210.043 144.584 207.757C156.823 205.097 166.767 198.625 176.712 192.528C184.744 187.583 192.012 181.111 199.279 175.014C209.606 166.641 219.55 157.884 229.877 148.751C237.144 142.279 243.646 135.049 250.913 128.577C258.563 121.721 266.212 114.49 274.245 108.394C285.719 99.645 297.576 91.263 309.815 83.6485C318.231 78.7029 327.409 74.9 336.589 71.0884C345.004 67.2855 353.801 63.8576 362.215 60.4298C367.188 58.5283 372.542 57.3857 377.897 56.6268C397.021 53.5742 416.527 50.5301 435.655 53.199C447.512 54.7168 459.744 56.2432 470.843 60.8136C495.699 71.0885 519.03 84.416 535.866 106.492C541.219 113.731 547.723 119.82 552.692 127.05C557.662 134.665 561.106 143.038 564.933 151.037C572.963 168.551 576.407 187.199 576.407 206.231C576.407 218.032 576.79 230.217 575.256 242.019C574.114 251.159 569.136 259.533 566.843 268.665C563.782 281.234 555.369 290.366 549.632 301.025C546.572 307.121 541.219 312.451 536.241 317.396C521.332 332.242 506.414 347.087 490.346 361.173C478.489 371.832 465.865 381.732 452.865 390.872C439.857 399.63 428.384 410.288 416.143 420.179C401.609 431.981 387.459 444.166 375.22 458.636C369.865 464.724 365.276 471.955 361.068 478.81C356.86 485.657 352.271 492.513 350.358 500.127C346.916 512.312 345.649 524.745 345.649 537.433C345.649 537.433 343.944 586.565 426.977 615.556C510.012 644.547 591.921 631.331 591.921 631.331V707.399C591.921 707.399 557.509 711.799 507.02 707.399C472.079 704.347 429.432 697.082 385.164 681.213C276.922 642.416 267.83 540.86 267.83 540.86Z" fill="white"/>
<path d="M1312.9 1129.22C1313.67 1116.66 1313.67 1104.09 1315.58 1091.91C1317.11 1082.01 1321.31 1072.11 1324.76 1062.6C1327.43 1055.36 1330.11 1048.13 1333.55 1040.89C1335.85 1035.95 1338.52 1031.38 1341.97 1026.81C1351.53 1013.86 1360.71 1000.16 1371.03 987.985C1379.45 978.085 1390.16 970.087 1399.72 961.713C1410.05 952.956 1420.37 944.199 1431.09 935.442C1440.65 927.827 1450.21 920.597 1459.77 912.982C1469.72 904.993 1479.66 897.753 1489.22 889.005C1501.85 877.578 1514.09 866.161 1525.94 853.976C1535.12 845.219 1541.24 834.185 1543.54 821.617C1545.06 813.627 1546.97 805.254 1545.83 797.639C1543.91 783.553 1539.33 769.841 1530.53 757.665C1524.41 749.292 1518.29 741.677 1509.49 735.964C1502.99 731.777 1496.11 727.207 1488.84 725.305C1478.52 722.636 1467.42 721.494 1457.09 721.878C1447.91 722.261 1438.35 725.689 1429.17 727.966C1424.2 729.108 1418.85 730.251 1414.26 732.536C1410.43 734.062 1406.99 737.107 1403.16 739.392C1398.19 742.052 1392.84 744.337 1388.24 747.381C1377.54 754.621 1366.06 761.852 1356.5 770.225C1343.5 781.267 1332.02 794.211 1319.4 805.629C1307.16 816.671 1294.92 828.472 1281.54 837.604C1265.47 848.647 1247.88 858.163 1230.28 867.304C1222.64 871.49 1213.84 872.633 1205.8 875.677C1194.71 879.864 1183.62 881.39 1172.15 883.675C1148.05 889.005 1123.57 887.095 1099.48 886.719C1098.33 886.719 1097.18 886.719 1096.42 886.719C1086.85 885.577 1077.67 884.05 1068.11 882.533C1062.37 881.39 1056.25 880.623 1050.9 878.721C1040.95 875.293 1031.01 871.107 1021.45 866.92C1012.27 862.733 1003.09 858.547 995.056 853.217C978.23 841.8 962.545 828.472 949.537 812.859C941.507 803.344 933.861 793.069 927.741 782.41C922.387 773.269 918.56 762.994 915.116 752.711C910.914 738.633 907.854 724.163 904.026 710.076C898.289 688 900.966 665.157 900.966 643.072C900.966 625.942 905.552 609.195 910.914 592.823C913.59 584.066 915.5 575.309 919.711 567.319C925.831 555.134 933.094 543.717 940.365 531.916C945.335 523.917 950.688 515.928 956.808 508.688C965.222 499.172 974.019 490.04 983.966 482.425C998.884 470.624 1014.94 459.966 1031.01 449.682C1036.75 445.879 1044.01 443.978 1050.13 441.309C1058.54 437.881 1066.97 433.694 1075.38 430.65C1081.12 428.749 1086.85 427.606 1092.97 426.463C1104.06 424.178 1115.15 421.518 1126.24 419.992C1134.28 418.849 1142.7 418.849 1151.11 418.849C1160.29 418.849 1169.47 418.09 1178.65 419.233C1190.12 420.75 1201.6 423.419 1213.07 425.321C1219.96 426.463 1226.45 427.981 1233.34 429.508C1240.61 431.409 1247.88 433.694 1255.52 435.979C1256.67 435.979 1257.44 436.738 1258.58 436.738C1267 437.506 1275.03 440.925 1282.68 443.594C1288.03 445.495 1293.4 446.254 1298.75 447.781C1315.19 451.967 1332.02 455.779 1348.47 459.966C1358.03 462.251 1367.97 464.528 1377.54 466.813C1383.66 468.339 1390.16 469.482 1396.28 470.624C1403.55 472.142 1410.82 472.909 1418.08 474.427C1447.91 481.667 1477.75 482.042 1507.97 480.899C1519.06 480.524 1529.76 479.381 1540.48 477.471C1550.8 475.57 1561.13 473.668 1571.07 469.865C1589.05 463.393 1606.64 456.538 1623.09 445.879C1636.86 436.738 1648.33 425.705 1657.52 412.761C1665.55 401.335 1672.43 388.391 1670.52 373.162C1670.14 369.359 1670.52 365.556 1670.52 361.361C1670.52 349.943 1664.78 340.811 1659.81 330.911C1655.22 321.395 1648.33 313.781 1639.92 308.068C1633.03 303.497 1624.62 301.979 1617.35 297.793C1608.94 292.839 1599.76 296.266 1592.11 293.606C1579.87 289.794 1567.63 290.178 1556.15 291.696C1534.36 295.124 1512.17 292.463 1490.37 295.507C1482.33 296.65 1475.07 294.365 1467.04 294.74C1458.62 294.74 1450.21 294.74 1442.18 293.981C1435.29 292.839 1429.17 289.036 1422.29 287.893C1411.57 285.991 1402.4 281.421 1393.22 276.092C1383.27 270.762 1373.71 264.29 1366.83 255.15C1359.18 245.25 1352.3 234.216 1345.41 223.558C1343.12 220.13 1342.35 215.943 1341.2 212.132C1339.67 206.043 1339.29 199.188 1337 193.1C1330.11 177.112 1333.94 160.356 1333.94 143.993C1333.94 135.995 1337.76 128.005 1340.06 120.007C1341.58 115.437 1342.35 110.491 1344.64 106.304C1349.61 97.1635 1354.97 88.4063 1360.71 79.6577C1368.74 67.0891 1380.98 58.332 1392.84 49.1997C1397.81 45.3882 1403.93 42.7277 1409.67 40.0588C1417.31 36.2558 1424.97 32.8281 1433 29.4002C1434.91 28.6414 1437.59 29.4002 1439.88 28.6413C1448.68 26.3561 1457.86 24.071 1466.66 21.7857C1469.33 21.0269 1472.4 21.7857 1475.46 21.0268C1491.9 19.8842 1507.2 14.1755 1520.97 6.18065C1534.74 -1.81416 1542 -15.1383 1548.51 -29.6041C1551.57 -36.4563 1550.8 -42.9283 1552.34 -49.4002C1554.24 -57.395 1552.34 -65.7701 1551.18 -73.0026C1549.28 -81.7589 1544.68 -90.134 1540.09 -98.1288C1534.74 -107.646 1527.85 -116.021 1518.67 -122.112C1509.49 -128.203 1501.08 -135.055 1491.13 -139.624C1479.66 -145.334 1467.42 -149.521 1455.94 -154.09C1455.56 -154.09 1455.18 -154.09 1454.8 -154.09C1445.24 -155.613 1435.29 -157.897 1425.73 -158.277C1410.43 -159.039 1395.13 -159.419 1379.83 -158.277C1367.97 -157.136 1356.88 -153.71 1345.41 -148.379C1331.64 -141.527 1320.17 -132.391 1310.99 -120.97C1305.25 -114.118 1301.42 -105.742 1296.83 -97.7476C1293.77 -91.6569 1291.09 -85.5653 1288.8 -79.0942C1286.51 -72.6223 1283.83 -65.7701 1282.68 -58.917C1279.62 -42.9283 1277.33 -26.5583 1275.42 -10.1893C1273.88 1.9931 1272.74 14.1755 1271.59 26.3561C1270.44 39.6837 1269.68 53.3864 1267.76 66.7139C1266.24 78.5151 1263.18 90.3163 1260.88 101.734C1259.35 110.107 1258.97 119.248 1256.29 127.238C1250.17 143.226 1245.2 159.597 1236.4 174.826C1226.84 190.431 1215.36 203.758 1201.6 215.559C1193.57 222.415 1183.62 226.602 1174.06 231.931C1159.52 239.545 1143.46 242.973 1127.78 245.25C1114.39 247.16 1100.24 245.25 1086.09 243.732C1079.58 243.348 1073.46 241.447 1067.34 239.546C1060.08 237.26 1052.81 234.591 1045.93 231.172C1039.81 228.119 1033.69 224.7 1027.95 220.889C1021.83 217.086 1016.09 213.658 1010.36 209.471C1000.79 202.24 990.845 195.385 981.673 187.386C968.282 175.969 955.282 163.409 941.891 151.608C928.883 140.182 915.883 128.38 902.492 117.338C894.462 110.875 886.049 103.635 876.485 99.8324C856.214 92.2179 834.793 87.2638 812.996 94.5031C808.402 96.0209 803.432 96.7882 798.462 98.306C780.868 104.403 766.718 113.919 757.154 130.666C751.801 140.182 748.741 150.081 745.681 160.356C742.237 171.782 742.237 182.441 743.004 193.483C743.387 201.473 747.206 209.087 749.883 216.702C751.034 220.513 752.185 224.316 753.71 228.119C758.68 238.019 763.274 248.303 769.011 257.819C774.748 267.335 781.252 276.467 786.989 285.991C794.251 297.793 802.29 309.21 809.169 321.011C816.056 332.813 822.177 344.614 828.681 356.415C833.65 365.556 836.327 375.447 839.771 385.347C847.417 408.949 850.477 432.552 849.335 456.921C848.568 469.865 845.891 482.801 843.59 495.744C842.447 502.6 840.913 509.831 839.004 516.303C837.478 522.016 834.793 527.729 832.5 533.433C830.974 538.004 829.823 542.958 827.53 547.145C823.319 555.893 818.733 564.65 814.138 573.032C809.169 581.406 804.199 589.779 798.846 597.777C795.402 603.107 790.808 607.668 786.989 612.998C774.748 628.986 759.831 641.929 743.387 653.355C731.905 661.345 719.673 668.96 707.049 675.815C697.868 681.145 687.545 684.948 677.598 688.759C672.244 691.044 666.508 692.187 660.771 693.705C653.5 695.99 646.237 698.659 639.35 700.944C638.582 700.944 638.199 700.944 637.44 700.944C625.199 702.462 612.958 704.363 600.718 705.89C597.658 706.273 594.597 706.648 591.921 707.416C591.921 681.903 591.921 656.783 591.921 631.271C600.334 629.753 608.364 628.986 616.786 627.084C624.049 625.183 630.936 622.522 637.815 620.237C641.642 619.094 645.853 617.952 650.056 616.425C658.094 612.998 666.508 609.954 674.154 605.767C682.184 601.58 690.222 596.635 697.868 591.305C710.493 582.548 721.966 571.89 731.147 559.321C737.267 550.948 744.913 542.958 749.124 533.433C755.236 520.114 761.74 507.17 765.567 493.084C771.304 471.767 773.214 450.066 771.304 428.365C770.153 413.903 765.568 400.192 758.296 387.632C752.56 377.732 748.357 366.698 742.237 357.174C734.59 344.614 725.794 332.813 717.755 320.628C712.402 312.254 706.665 303.881 701.696 295.507C694.424 282.564 687.162 269.236 680.274 255.917C677.981 251.722 677.214 246.393 675.688 241.831C673.387 235.359 671.094 228.887 668.801 222.031C668.801 221.272 668.801 220.889 668.801 220.13C667.65 205.284 665.357 190.431 665.357 175.21C665.357 165.694 666.891 155.794 669.184 146.278C672.244 133.71 675.305 120.766 680.658 109.348C686.778 95.6456 692.899 81.1755 705.139 70.9006C712.786 64.045 719.29 55.6716 726.936 49.1997C734.207 43.4867 742.237 39.3 750.267 34.7296C756.387 31.3103 762.891 27.8824 769.011 24.8383C773.214 22.9283 777.808 21.4105 782.394 20.6431C791.575 18.7416 800.755 16.8401 810.32 15.6975C819.5 14.5558 829.439 13.0329 838.62 13.7943C854.305 15.3172 869.989 17.599 885.282 21.0268C893.32 22.9283 900.583 28.2576 908.612 30.5428C922.387 34.3543 932.71 43.4866 944.567 50.7174C954.515 56.8141 962.929 65.5714 971.726 73.1859C983.966 83.8445 995.824 94.8782 1007.68 105.537C1015.33 112.392 1022.21 119.623 1030.24 126.479C1045.93 139.806 1062.37 152.367 1081.5 161.124C1093.36 166.453 1104.83 169.113 1117.07 167.212C1136.96 164.551 1154.55 156.937 1166.41 140.182C1172.15 131.808 1174.82 121.15 1178.65 111.634C1180.94 105.162 1182.85 98.6897 1185.15 92.2178C1185.15 91.4589 1185.53 90.6915 1185.91 89.9326C1187.06 83.8444 1188.59 77.7477 1189.36 71.2757C1191.27 51.4848 1192.42 32.0692 1194.33 12.2714C1195.48 -0.29126 1196.62 -13.2342 1198.15 -25.7977C1198.92 -33.7917 1200.06 -41.7865 1201.98 -49.7805C1204.66 -63.1046 1207.72 -76.0484 1211.16 -88.9922C1213.84 -98.5091 1216.52 -108.027 1219.96 -117.163C1223.02 -125.538 1226.84 -133.532 1231.43 -141.146C1236.79 -150.664 1242.52 -160.181 1249.41 -168.556C1264.32 -187.21 1281.15 -204.341 1303.33 -215C1312.13 -219.188 1321.31 -222.615 1330.11 -226.421C1361.85 -240.507 1395.52 -238.984 1428.79 -237.461C1439.5 -237.08 1450.59 -235.177 1461.31 -233.273C1467.8 -232.131 1474.69 -231.37 1481.19 -229.467C1489.22 -226.802 1496.87 -222.615 1504.52 -219.569C1513.32 -215.762 1522.5 -212.717 1530.91 -208.529C1538.94 -204.722 1546.21 -199.392 1553.86 -194.824C1566.1 -187.59 1576.81 -177.692 1586.37 -167.414C1600.52 -152.187 1613.15 -135.436 1619.65 -115.259C1622.71 -105.361 1626.53 -95.8444 1629.59 -85.9464C1629.97 -84.8047 1629.59 -83.2818 1629.59 -82.1392C1629.59 -64.2472 1630.74 -45.9741 1629.21 -28.4624C1628.45 -18.9447 1626.15 -9.04669 1620.41 -0.291275C1616.97 5.03888 1615.06 11.8911 1612 17.599C1609.7 21.7857 1607.03 25.9724 1604.73 30.1676C1597.08 42.7278 1586.76 53.3864 1574.9 62.5187C1568.78 67.4728 1561.89 71.6595 1555.01 75.8463C1543.15 83.4608 1529.76 87.2637 1516.38 91.0753C1502.6 95.262 1488.84 97.5471 1474.3 98.6897C1467.8 99.4486 1461.68 103.26 1455.18 104.778C1442.18 107.447 1432.61 115.437 1424.2 124.194C1420 128.38 1417.7 134.852 1414.64 140.182C1408.9 151.608 1410.82 163.409 1411.96 174.443C1413.88 188.913 1420.76 201.098 1435.29 207.945C1444.85 212.515 1454.03 213.658 1463.98 215.559C1473.92 217.461 1483.49 218.603 1493.05 217.461C1517.15 213.658 1541.24 215.176 1565.33 214.042C1582.16 213.274 1599 214.042 1615.82 215.176C1624.24 215.943 1632.27 219.371 1640.31 221.648C1644.89 222.79 1649.1 224.7 1653.69 225.843C1665.93 228.887 1676.64 234.975 1686.2 242.973C1697.67 252.865 1708.39 263.148 1718.33 274.19C1723.68 280.278 1726.74 289.036 1730.57 296.65C1733.63 302.355 1736.69 308.451 1738.98 314.539C1741.66 321.395 1743.19 329.01 1745.1 336.24C1749.31 349.943 1749.7 364.413 1748.55 378.116C1747.78 388.775 1744.33 399.049 1742.04 409.333C1740.9 413.903 1739.75 418.465 1738.21 423.036C1731.34 440.166 1722.15 455.779 1710.3 470.624C1699.59 483.943 1686.97 494.227 1674.34 504.885C1665.93 511.741 1655.22 516.303 1645.66 521.632C1637.63 525.819 1629.21 530.014 1620.41 533.433C1615.06 535.718 1608.94 537.245 1603.58 539.53C1597.85 541.431 1592.11 543.717 1585.99 545.618C1585.22 545.618 1584.85 546.002 1584.08 546.377C1575.28 547.903 1565.72 547.903 1557.3 550.564C1543.91 554.759 1530.15 552.09 1517.15 555.134C1498.02 559.705 1478.9 556.661 1459.77 557.036C1448.3 557.036 1436.44 555.134 1424.97 553.616C1416.55 552.474 1407.76 552.474 1400.1 549.43C1392.07 546.377 1384.43 547.144 1376.39 545.618C1360.33 542.574 1344.64 538.763 1328.97 534.576C1318.64 531.916 1308.31 528.104 1297.98 525.06C1291.48 523.158 1284.97 522.016 1278.48 520.114C1271.97 518.213 1265.47 515.544 1258.58 513.259C1254.38 511.741 1250.17 510.598 1245.97 509.456C1234.87 506.787 1223.78 504.126 1212.69 501.074C1208.1 499.94 1203.51 498.413 1198.54 497.654C1185.53 495.744 1172.15 493.084 1159.14 493.084C1144.22 493.084 1129.69 495.369 1115.15 497.654C1105.59 499.172 1096.03 502.216 1086.47 505.644C1078.44 508.688 1070.03 512.5 1063.14 517.445C1050.51 526.202 1038.27 535.718 1026.42 545.618C1019.92 550.948 1014.56 557.419 1009.59 564.275C1003.47 572.648 998.116 581.406 993.147 590.163C987.785 599.679 984.734 609.954 982.048 620.996C977.462 639.653 974.019 658.301 976.695 677.342C979.372 697.132 982.816 717.307 991.996 735.58C1000.79 752.711 1013.03 767.181 1027.57 778.982C1036.36 786.213 1045.93 793.452 1057.79 796.113C1061.99 796.872 1066.2 799.916 1070.03 801.826C1070.4 801.826 1071.17 802.584 1071.94 802.584C1080.73 804.111 1089.53 806.012 1098.71 806.771C1109.03 807.914 1119.75 809.44 1130.07 809.44C1140.78 809.44 1151.49 808.298 1161.82 806.012C1171.76 803.727 1180.94 798.398 1190.51 796.113C1202.74 793.452 1212.69 786.98 1222.64 780.884C1230.67 775.938 1237.93 769.466 1245.2 763.369C1255.52 754.996 1265.47 746.239 1275.8 737.107C1283.06 730.635 1289.57 723.404 1296.83 716.932C1304.49 710.076 1312.13 702.846 1320.17 696.749C1331.64 688 1343.5 679.618 1355.73 672.004C1364.15 667.058 1373.33 663.255 1382.51 659.444C1390.92 655.641 1399.72 652.213 1408.14 648.785C1413.11 646.883 1418.46 645.741 1423.82 644.982C1442.94 641.929 1462.45 638.885 1481.58 641.554C1493.43 643.072 1505.67 644.598 1516.76 649.169C1541.62 659.444 1564.95 672.771 1581.79 694.847C1587.14 702.087 1593.64 708.175 1598.61 715.406C1603.58 723.02 1607.03 731.394 1610.85 739.392C1618.88 756.906 1622.33 775.554 1622.33 794.586C1622.33 806.388 1622.71 818.573 1621.18 830.374C1620.03 839.515 1615.06 847.888 1612.76 857.02C1609.7 869.589 1601.29 878.721 1595.55 889.38C1592.49 895.477 1587.14 900.806 1582.16 905.751C1567.25 920.597 1552.34 935.442 1536.27 949.528C1524.41 960.187 1511.79 970.087 1498.79 979.228C1485.78 987.985 1474.3 998.643 1462.06 1008.53C1447.53 1020.34 1433.38 1032.52 1421.14 1046.99C1415.79 1053.08 1411.2 1060.31 1406.99 1067.17C1402.78 1074.01 1398.19 1080.87 1396.28 1088.48C1392.84 1100.67 1391.3 1113.23 1389.01 1125.79C1389.01 1125.79 1384.2 1210.73 1525.94 1243.56C1667.68 1276.39 1764.43 1271.7 1764.43 1271.7V1345.88C1764.43 1345.88 1635.28 1351.85 1475.03 1311.35C1314.77 1270.85 1314.77 1143.37 1314.77 1143.37L1312.9 1129.22Z" fill="white"/>
</g>
</g>
<defs>
<clipPath id="clip0_7_352">
<rect width="1310" height="513" fill="white"/>
</clipPath>
<clipPath id="clip1_7_352">
<rect width="2218" height="2188" fill="white" transform="translate(-454 -837)"/>
</clipPath>
</defs>
</svg>
