<svg width="32" height="32" viewBox="0 0 32 32" fill="none" xmlns="http://www.w3.org/2000/svg">
<rect x="0.4" y="0.4" width="31.2" height="31.2" rx="15.6" fill="#F4B0E9"/>
<rect x="0.4" y="0.4" width="31.2" height="31.2" rx="15.6" stroke="#361566" stroke-width="0.8"/>
<path d="M16 8C11.584 8 8 11.584 8 16C8 20.416 11.584 24 16 24C20.416 24 24 20.416 24 16C24 11.584 20.416 8 16 8ZM19.712 13.44C19.592 14.704 19.072 17.776 18.808 19.192C18.696 19.792 18.472 19.992 18.264 20.016C17.8 20.056 17.448 19.712 17 19.416C16.296 18.952 15.896 18.664 15.216 18.216C14.424 17.696 14.936 17.408 15.392 16.944C15.512 16.824 17.56 14.96 17.6 14.792C17.6056 14.7666 17.6048 14.7401 17.5978 14.715C17.5909 14.6899 17.5779 14.6669 17.56 14.648C17.512 14.608 17.448 14.624 17.392 14.632C17.32 14.648 16.2 15.392 14.016 16.864C13.696 17.08 13.408 17.192 13.152 17.184C12.864 17.176 12.32 17.024 11.912 16.888C11.408 16.728 11.016 16.64 11.048 16.36C11.064 16.216 11.264 16.072 11.64 15.92C13.976 14.904 15.528 14.232 16.304 13.912C18.528 12.984 18.984 12.824 19.288 12.824C19.352 12.824 19.504 12.84 19.6 12.92C19.68 12.984 19.704 13.072 19.712 13.136C19.704 13.184 19.72 13.328 19.712 13.44Z" fill="#361566"/>
</svg>
